%
M48
M72
T01C0.0276
T02C0.0320
T03C0.0354
T04C0.0400
T05C0.1300
%
T01
X11830Y16210
X8650Y16800
X8650Y18150
X22400Y17850
X30650Y15250
X31550Y16150
X32450Y18800
X24800Y21200
T02
X25000Y19000
X24000Y19000
X23000Y19000
X22000Y19000
X21000Y19000
X20000Y19000
X19000Y19000
X18000Y19000
X17000Y19000
X16000Y19000
X15000Y19000
X14000Y19000
X13000Y19000
X11360Y19910
X10360Y19910
X13000Y16000
X14000Y16000
X15000Y16000
X16000Y16000
X17000Y16000
X18000Y16000
X19000Y16000
X20000Y16000
X21000Y16000
X22000Y16000
X23000Y16000
X24000Y16000
X25000Y16000
X26000Y16000
X22500Y14500
X21500Y14500
X26000Y19000
T03
X8500Y13850
X12150Y13850
X30700Y18950
X36350Y21400
T04
X29400Y18150
X28400Y18150
X28400Y17150
X29400Y17150
X29400Y16150
X28400Y16150
X28700Y14500
X29700Y14500
X10920Y15350
X9920Y15350
X8920Y15350
X9050Y19200
X8050Y19200
T05
X6400Y21300
X6400Y14200
X38200Y14200
X38200Y21300
M30
