%
M48
M72
T01C0.0276
T02C0.0315
T03C0.0354
T04C0.0400
%
T01
X1930Y12460
X2920Y11560
X3720Y11590
X2970Y12460
X4250Y13230
X5120Y12660
X5810Y13860
X5320Y14490
X3850Y16070
X3000Y15760
X7020Y17170
X7760Y17000
X7020Y18500
X5990Y11170
X3740Y10640
T02
X1340Y10990
X1340Y11780
X1340Y12570
X1340Y13360
X1340Y14150
X1340Y14940
X1340Y15730
X8670Y15740
X8670Y14950
X8670Y14160
X8670Y13370
X8670Y12580
X8670Y11790
X8670Y11000
T03
X7670Y10750
X8140Y19270
X4960Y19260
T04
X3140Y18810
X3140Y17810
X2140Y17810
X2140Y18810
X1140Y18810
X1140Y17810
X8750Y18280
X8750Y17280
M30
